<svg xmlns="http://www.w3.org/2000/svg" width="14.089850576311098" height="14.0895522982911" version="1.1" style="">
    <defs>
        <polygon id="path-1" points="0 0.11792 17.55692 0.11792 17.55692 21.99992 0 21.99992"/>
    </defs>

    <g class="currentLayer" style="">
        <g id="outline" stroke="white" stroke-width="0.5" fill="none" fill-rule="evenodd" class="">
            <g id="Group-22">
                <path d="M9.785734667589189,11.523494588397407 C9.74594386758919,11.533682988397407 9.70275826758919,11.527878488397407 9.668767667589186,11.499886188397408 C6.275967667589185,8.705686188397408 5.322167667589184,6.799686188397407 5.921967667589185,4.738686188397407 C6.2925076675891916,3.4655261883974076 7.255507667589185,2.1333261883974077 8.60390766758919,0.4959261883974076 C8.650307667589189,0.43952618839740754 8.733907667589186,0.43152618839740753 8.79030766758919,0.4779261883974075 C14.278907667589188,4.9979261883974075 13.386507667589186,7.193726188397408 9.855307667589187,11.481726188397408 C9.836707667589188,11.504326188397407 9.811907667589189,11.516726188397408 9.785707667589186,11.523526188397408 z"
                      id="right" fill="none"/>
                <path d="M9.725074767589184,11.526007888397407 C9.705056167589184,11.522331188397407 9.685762567589187,11.513881988397408 9.668767667589186,11.499886188397408 C6.275967667589185,8.705686188397408 5.322167667589184,6.799686188397407 5.921967667589185,4.738686188397407 C8.000567667589188,5.2744861883974075 9.153167667589187,7.067286188397407 9.824967667589185,11.410886188397408 C9.83176766758919,11.454486188397407 9.814767667589187,11.494686188397408 9.785767667589191,11.523486188397408 C9.766501567589188,11.542668188397407 9.742927567589184,11.557632388397408 9.714367667589187,11.562026188397407 C4.224567667589184,12.411026188397408 1.8807676675891827,12.058226188397407 0.7939676675891862,5.031426188397408 C0.7829676675891905,4.959226188397407 0.8325676675891881,4.891426188397408 0.9047676675891834,4.8802261883974065 C3.0009676675891868,4.556026188397407 4.637967667589187,4.407826188397408 5.921967667589185,4.738626188397408 C5.322167667589184,6.79962618839741 6.275967667589185,8.705826188397408 9.668767667589186,11.499826188397407 C9.68576526758919,11.513824188397408 9.705062267589184,11.522323788397408 9.725084267589189,11.526024688397408 z"
                      id="left" fill="none"/>
            </g>
        </g>
    </g>
</svg>
