<?xml version="1.0" encoding="UTF-8"?>
<svg width="91.125px" height="36px" viewBox="0 0 81 32" version="1.1"
     xmlns="http://www.w3.org/2000/svg"
     xmlns:xlink="http://www.w3.org/1999/xlink">
    <defs>
        <polygon id="path-1" points="0 0.11792 17.55692 0.11792 17.55692 21.99992 0 21.99992"></polygon>
    </defs>
    <g id="Temp" stroke="none" stroke-width="1" fill="none" fill-rule="evenodd">
        <g id="Group-22">
            <path d="M34.397027,11.0758684 C34.3572362,11.0860568 34.3140506,11.0802523 34.28006,11.05226 C30.88726,8.25806 29.93346,6.35206 30.53326,4.29106 C30.9038,3.0179 31.8668,1.6857 33.2152,0.0483 C33.2616,-0.0081 33.3452,-0.0161 33.4016,0.0303 C38.8902,4.5503 37.9978,6.7461 34.4666,11.0341 C34.448,11.0567 34.4232,11.0691 34.397,11.0759 Z"
                  id="right" fill="#9ACA3D"></path>
            <path d="M34.3363671,11.0783817 C34.3163485,11.074705 34.2970549,11.0662558 34.28006,11.05226 C30.88726,8.25806 29.93346,6.35206 30.53326,4.29106 C32.61186,4.82686 33.76446,6.61966 34.43626,10.96326 C34.44306,11.00686 34.42606,11.04706 34.39706,11.07586 C34.3777939,11.095042 34.3542199,11.1100062 34.32566,11.1144 C28.83586,11.9634 26.49206,11.6106 25.40526,4.5838 C25.39426,4.5116 25.44386,4.4438 25.51606,4.4326 C27.61226,4.1084 29.24926,3.9602 30.53326,4.291 C29.93346,6.352 30.88726,8.2582 34.28006,11.0522 C34.2970576,11.066198 34.3163546,11.0746976 34.3363766,11.0783985 Z"
                  id="left" fill="#25CE81"></path>
            <path d="M34.43626,10.96326 C33.76446,6.61966 32.61186,4.82686 30.53326,4.29106 C29.93346,6.35206 30.88726,8.25806 34.28006,11.05226 C34.31406,11.08026 34.35726,11.08606 34.39706,11.07586 C34.42606,11.04706 34.44306,11.00686 34.43626,10.96326"
                  id="center" fill="#1CA067"></path>
            <g id="Group-9" transform="translate(0.000000, 9.982800)">
                <mask id="mask-2" fill="white">
                    <use xlink:href="#path-1"></use>
                </mask>
                <g id="Clip-8"></g>
                <path d="M8.46052,11.18592 L5.50272,11.18592 L5.50272,5.20732 L8.46052,5.20732 C10.51152,5.20732 11.73592,6.32492 11.73592,8.19652 C11.73592,10.06832 10.51152,11.18592 8.46052,11.18592 M8.93752,0.11792 L1.11352,0.11792 C0.49852,0.11792 -8e-05,0.61652 -8e-05,1.23132 L-8e-05,20.88652 C-8e-05,21.50152 0.49852,21.99992 1.11352,21.99992 L4.39072,21.99992 C5.00112,21.99992 5.49572,21.50832 5.50272,20.89952 L5.50272,20.87352 L5.50272,16.27512 L8.93752,16.27512 C14.33452,16.27512 17.55692,13.25512 17.55692,8.19652 C17.55692,3.13792 14.33452,0.11792 8.93752,0.11792"
                      id="Fill-7" fill="#3D363B" mask="url(#mask-2)"></path>
            </g>
            <path d="M24.94982,10.10072 L21.67382,10.10072 C21.05902,10.10072 20.56042,10.59912 20.56042,11.21412 L20.56042,30.86932 C20.56042,31.48432 21.05902,31.98272 21.67382,31.98272 L24.94982,31.98272 C25.56482,31.98272 26.06322,31.48432 26.06322,30.86932 L26.06322,11.21412 C26.06322,10.59912 25.56482,10.10072 24.94982,10.10072"
                  id="Fill-10" fill="#3D363B"></path>
            <path d="M45.99136,13.21212 L45.98836,13.21562 C45.98936,13.21462 45.99036,13.21362 45.99136,13.21212"
                  id="Fill-12" fill="#3D363B"></path>
            <path d="M45.68184,11.66274 C45.69934,11.67574 45.71684,11.68824 45.73434,11.70124 C45.71634,11.68874 45.69984,11.67474 45.68184,11.66274"
                  id="Fill-14" fill="#3D363B"></path>
            <path d="M79.52538,10.10072 L76.24938,10.10072 C75.63458,10.10072 75.13598,10.59912 75.13598,11.21412 L75.13598,30.86932 C75.13598,31.48432 75.63458,31.98272 76.24938,31.98272 L79.52538,31.98272 C80.14038,31.98272 80.63878,31.48432 80.63878,30.86932 L80.63878,11.21412 C80.63878,10.59912 80.14038,10.10072 79.52538,10.10072"
                  id="Fill-16" fill="#3D363B"></path>
            <path d="M71.67366,11.22718 L71.67366,11.20118 C71.66646,10.59238 71.17206,10.10078 70.56146,10.10078 L68.56446,10.10078 C68.29966,10.10078 68.05686,10.19358 67.86606,10.34838 C67.78446,10.41478 67.71226,10.49238 67.65186,10.57878 L67.62406,10.61718 L66.87126,11.68098 L60.82206,20.29138 L53.97286,10.58558 L53.97266,10.58538 C53.77246,10.29278 53.43626,10.10078 53.05486,10.10078 L51.05786,10.10078 C50.67946,10.10078 50.34626,10.29038 50.14506,10.57878 L50.12926,10.60158 C50.01286,10.77738 49.94446,10.98758 49.94446,11.21418 C49.94446,11.21418 49.95066,30.25558 49.95066,30.86938 C49.95066,31.48318 50.44746,31.98078 51.06086,31.98258 C51.05986,31.98258 51.05886,31.98278 51.05786,31.98278 L54.33506,31.98278 L54.34126,31.98278 C54.95186,31.98278 55.43866,31.49878 55.44586,30.88998 C55.44586,30.88998 55.44846,30.81918 55.44726,30.80038 L55.44726,21.44378 L59.86926,27.49838 L59.87486,27.49838 C60.07666,27.80338 60.42186,28.00518 60.81506,28.00518 C61.23246,28.00518 61.59206,27.77558 61.78666,27.43858 L66.16466,21.44358 L66.16466,30.86938 C66.16466,30.25438 66.17086,30.25558 66.17086,30.86938 C66.17086,31.48318 66.66766,31.98078 67.28126,31.98258 C67.28006,31.98258 67.27906,31.98278 67.27806,31.98278 L70.55526,31.98278 L70.56146,31.98278 C71.17206,31.98278 71.66646,31.49118 71.67366,30.88238 L71.67366,30.85638 C71.67346,30.83718 71.66866,30.81918 71.66746,30.80038 L71.66746,11.28318 C71.66866,11.26418 71.67346,11.24638 71.67366,11.22718"
                  id="Fill-18" fill="#3D363B"></path>
            <path d="M46.65936,28.78078 L46.65036,28.76898 L44.38076,25.80438 L44.25636,25.64178 C44.12516,25.51538 43.94756,25.43678 43.75096,25.43678 C43.63536,25.43678 43.52736,25.46618 43.43016,25.51418 C43.38796,25.54338 43.34376,25.56798 43.30096,25.59618 C42.25096,26.28818 41.06496,26.66618 39.88096,26.66618 C36.92976,26.66618 34.86876,24.36778 34.86876,21.07678 C34.86876,17.78578 36.99216,15.48758 40.03276,15.48758 C41.12816,15.48758 42.15856,15.82158 43.06236,16.45138 C43.11336,16.48698 43.16516,16.52018 43.21536,16.55758 C43.31636,16.61058 43.42976,16.64358 43.55196,16.64358 C43.72916,16.64358 43.88956,16.57778 44.01596,16.47278 C44.09276,16.40878 44.15576,16.33038 44.20116,16.24038 L46.40436,13.47678 L46.54516,13.29998 C46.60636,13.19338 46.64416,13.07138 46.64416,12.93938 C46.64416,12.80698 46.60636,12.68458 46.54456,12.57758 L46.45916,12.46598 L46.42016,12.41498 C46.37156,12.36818 46.31476,12.33058 46.25476,12.29838 C44.56116,10.96998 42.19816,10.17078 39.85056,10.17078 C33.74256,10.17078 29.30916,14.75738 29.30916,21.07678 C29.30916,27.49798 33.71876,31.98278 40.03276,31.98278 C42.30636,31.98278 44.67596,31.16278 46.43596,29.80438 C46.48276,29.76838 46.52876,29.73178 46.57476,29.69478 C46.70296,29.56338 46.78256,29.38418 46.78256,29.18618 C46.78256,29.03598 46.73696,28.89678 46.65936,28.78078"
                  id="Fill-20" fill="#3D363B"></path>
        </g>
    </g>
</svg>